<!DOCTYPE svg PUBLIC "-//W3C//DTD SVG 1.1//EN" "http://www.w3.org/Graphics/SVG/1.1/DTD/svg11.dtd">

<!-- Uploaded to: SVG Repo, www.svgrepo.com, Transformed by: SVG Repo Mixer Tools -->
<svg width="120px" height="120px"  viewBox="0 0 24.00 24.00" fill="none" xmlns="http://www.w3.org/2000/svg" transform="matrix(1, 0, 0, 1, 0, 0)">

<g id="SVGRepo_bgCarrier" stroke-width="0"/>

<g id="SVGRepo_tracerCarrier" stroke-linecap="round" stroke-linejoin="round" stroke="#f0f0f0" stroke-width="0.144"/>

<g id="SVGRepo_iconCarrier"> <path d="M4 10C4 6.22876 4 4.34315 5.17157 3.17157C6.34315 2 8.22876 2 12 2C15.7712 2 17.6569 2 18.8284 3.17157C20 4.34315 20 6.22876 20 10V14C20 17.7712 20 19.6569 18.8284 20.8284C17.6569 22 15.7712 22 12 22C8.22876 22 6.34315 22 5.17157 20.8284C4 19.6569 4 17.7712 4 14V10Z" stroke="#789671" stroke-width="0.312"/> <path opacity="0.5" d="M15 19H9" stroke="#789671" stroke-width="0.312" stroke-linecap="round"/> </g>

</svg>